<?xml version="1.0" encoding="UTF-8"?>
<svg version="1.1" xmlns="http://www.w3.org/2000/svg" width="1024" height="1024">
<path d="M0 0 C337.92 0 675.84 0 1024 0 C1024 337.92 1024 675.84 1024 1024 C686.08 1024 348.16 1024 0 1024 C0 686.08 0 348.16 0 0 Z " fill="#FEFEFE" transform="translate(0,0)"/>
<path d="M0 0 C1.79824219 -0.04640625 1.79824219 -0.04640625 3.6328125 -0.09375 C14.38480566 0.78514518 24.36761148 7.85409892 33.375 13.25 C34.6442202 14.00247802 35.91375861 14.75441954 37.18359375 15.50585938 C46.94726411 21.29649802 56.64458874 27.19728096 66.33398438 33.11108398 C76.01685597 39.01452916 85.78829755 44.75944778 95.58203125 50.4765625 C102.37262867 54.44143123 109.14258912 58.43684237 115.875 62.5 C123.89719957 67.34030343 131.97391701 72.08440443 140.0625 76.8125 C150.14640268 82.70810684 160.19145871 88.6628545 170.19873047 94.68798828 C178.84137967 99.88891087 187.51133308 105.04278476 196.1875 110.1875 C207.2571842 116.75258672 218.31195299 123.34126878 229.34033203 129.97558594 C240.49769887 136.68591136 251.67518799 143.36076877 262.875 150 C274.80438467 157.07172078 286.70641779 164.18725169 298.58984375 171.3359375 C308.99587465 177.59513102 319.43098003 183.80449757 329.875 190 C349.805094 201.8234437 349.805094 201.8234437 358.25708008 206.92480469 C362.63411553 209.5652267 367.02468994 212.18041666 371.43280029 214.76853943 C374.13969446 216.35967977 376.84183957 217.95879271 379.54364014 219.55856323 C380.86759301 220.33989836 382.19358221 221.11779544 383.52178955 221.89187622 C405.62106928 234.77777929 405.62106928 234.77777929 409.875 247.5 C411.03229648 255.43052642 409.53949834 261.97995397 404.875 268.5 C399.44057417 275.09318467 392.47099419 279.0971723 385.1875 283.375 C383.94270634 284.11674371 382.69857847 284.85960576 381.45507812 285.60351562 C378.8770554 287.14462146 376.29626577 288.68092874 373.71337891 290.21386719 C368.3195867 293.42001377 362.96147615 296.68455352 357.60247803 299.94839478 C354.7014681 301.71438956 351.79787162 303.47612141 348.89453125 305.23828125 C347.72867 305.94611249 346.56281715 306.65395757 345.39697266 307.36181641 C342.43033396 309.16291992 339.46353095 310.96375258 336.49667358 312.76449585 C325.11904505 319.67019616 313.74249622 326.57762658 302.375 333.5 C290.40878438 340.78697079 278.43245411 348.05725107 266.45556641 355.32666016 C262.92202638 357.4713929 259.38870988 359.61649365 255.85546875 361.76171875 C255.27874924 362.11187546 254.70202972 362.46203217 254.10783386 362.82279968 C251.20459742 364.58552334 248.30138731 366.34829035 245.39819336 368.11108398 C240.05542986 371.3551037 234.71249591 374.5988411 229.3687439 377.8412323 C227.53270354 378.955315 225.69676563 380.06956638 223.86083984 381.18383789 C221.48396304 382.62639621 219.10663631 384.06820894 216.72900391 385.50952148 C211.5372104 388.65895231 206.35124451 391.81646846 201.1875 395.01171875 C200.34268066 395.53330566 199.49786133 396.05489258 198.62744141 396.59228516 C197.09085842 397.54251136 195.55651175 398.49636767 194.02490234 399.45458984 C189.09670012 402.5 189.09670012 402.5 186.875 402.5 C188.92653604 395.94297304 191.41146185 389.67372539 194.18359375 383.390625 C194.59158707 382.46078796 194.99958038 381.53095093 195.41993713 380.57293701 C196.2775977 378.62239981 197.13740544 376.67280544 197.99926758 374.72412109 C199.31333252 371.74811457 200.61492467 368.76685367 201.91601562 365.78515625 C202.75445385 363.88247985 203.59362147 361.98012466 204.43359375 360.078125 C204.81913925 359.19159241 205.20468475 358.30505981 205.60191345 357.3916626 C209.55976265 348.50739117 209.55976265 348.50739117 212.875 345.5 C215.89941406 344.93237305 215.89941406 344.93237305 219.390625 345.01171875 C220.64101563 345.02783203 221.89140625 345.04394531 223.1796875 345.06054688 C224.48164062 345.10244141 225.78359375 345.14433594 227.125 345.1875 C228.44242188 345.21005859 229.75984375 345.23261719 231.1171875 345.25585938 C234.37093404 345.31480406 237.62239671 345.39704947 240.875 345.5 C228.52668169 321.32881978 228.52668169 321.32881978 216 297.25 C215.63922363 296.56381592 215.27844727 295.87763184 214.90673828 295.1706543 C212.2999446 290.24111669 209.5969577 285.36674269 206.875 280.5 C203.95226272 284.23520602 202.08194066 288.17640112 200.1875 292.5 C199.80795166 293.35392334 199.42840332 294.20784668 199.03735352 295.08764648 C197.64494397 298.22292137 196.26011719 301.3614968 194.875 304.5 C192.35822486 310.18929888 189.83568462 315.87604152 187.3125 321.5625 C186.97359741 322.32675293 186.63469482 323.09100586 186.28552246 323.87841797 C179.46608672 339.25045896 172.48249675 354.54494107 165.47128296 369.83021545 C160.73478661 380.16126451 156.09144109 390.53386085 151.45899963 400.91189575 C150.28592297 403.53909379 149.11154652 406.16571 147.93710327 408.79229736 C147.08661309 410.69602551 146.23819915 412.60066916 145.38989258 414.50537109 C139.34022014 428.0401374 135.5037381 435.53816499 122.33544922 442.83154297 C114.50034024 447.19466271 106.91380122 451.97090985 99.28979492 456.68896484 C97.16274056 458.00494262 95.03428671 459.3186616 92.90429688 460.62988281 C90.90476143 461.86428332 88.91110096 463.10825793 86.92382812 464.36230469 C85.57708008 465.20003418 85.57708008 465.20003418 84.203125 466.0546875 C83.41325195 466.55210449 82.62337891 467.04952148 81.80957031 467.56201172 C81.17116211 467.87154785 80.53275391 468.18108398 79.875 468.5 C79.215 468.17 78.555 467.84 77.875 467.5 C78.29160889 466.59161377 78.70821777 465.68322754 79.13745117 464.74731445 C87.95234587 445.52131353 96.70474595 426.27034669 105.32910156 406.95800781 C106.83818521 403.5823507 108.3517522 400.20874739 109.8671875 396.8359375 C114.7579623 385.94859968 119.63305408 375.05471817 124.47265625 364.14453125 C124.87813187 363.23052551 125.28360748 362.31651978 125.70137024 361.37481689 C126.11372421 360.44530212 126.52607819 359.51578735 126.95092773 358.55810547 C135.31018335 339.7155491 143.73273957 320.90384962 152.25415039 302.1340332 C155.75541032 294.41859584 159.24491747 286.69928251 162.66015625 278.9453125 C163.08897598 277.97294144 163.08897598 277.97294144 163.52645874 276.98092651 C164.82443053 274.03554541 166.11672923 271.08788046 167.40039062 268.13623047 C168.05491211 266.64567139 168.05491211 266.64567139 168.72265625 265.125 C169.09398682 264.27164062 169.46531738 263.41828125 169.84790039 262.5390625 C170.875 260.5 170.875 260.5 172.875 258.5 C175.76416016 258.18115234 175.76416016 258.18115234 179.4140625 258.0859375 C180.71601562 258.04726563 182.01796875 258.00859375 183.359375 257.96875 C184.73957862 257.93729237 186.11978704 257.90604509 187.5 257.875 C188.88804541 257.83682066 190.27606711 257.79776895 191.6640625 257.7578125 C195.06757185 257.66327057 198.47107165 257.57772103 201.875 257.5 C201.37613281 256.6234375 200.87726563 255.746875 200.36328125 254.84375 C194.52660863 244.54733204 188.87423851 234.15585528 183.25 223.7421875 C179.87069617 217.48574912 176.4696067 211.24133252 173.0625 205 C172.54067139 204.04399902 172.01884277 203.08799805 171.48120117 202.10302734 C170.27943093 199.90185591 169.07739146 197.70083214 167.875 195.5 C165.3212279 198.64711096 163.63860988 201.86478395 161.94140625 205.5390625 C161.66780777 206.12796768 161.39420929 206.71687286 161.11231995 207.32362366 C160.21620511 209.25536454 159.32681109 211.19011866 158.4375 213.125 C157.80687699 214.48822181 157.17584921 215.85125645 156.54443359 217.21411133 C154.9472276 220.66423776 153.35540428 224.11681893 151.76483154 227.57000732 C150.46302839 230.39354238 149.15533469 233.21433835 147.84765625 236.03515625 C142.63193652 247.296653 137.46562946 258.58042884 132.31280518 269.87078857 C131.98270447 270.59405334 131.65260376 271.31731812 131.3125 272.0625 C130.81638214 273.14957245 130.81638214 273.14957245 130.3102417 274.25860596 C122.64471612 291.04933889 114.87608865 307.79197597 107.10624695 324.53462219 C95.18353871 350.22800295 83.37632558 375.97483499 71.56221008 401.71827698 C69.75020404 405.66653376 67.93771168 409.61456714 66.125 413.5625 C65.76904755 414.3378006 65.41309509 415.1131012 65.0463562 415.91189575 C59.96458374 426.97831715 54.86002625 438.03363996 49.69970703 449.0637207 C47.07495501 454.69094901 44.49403797 460.33183907 41.98629761 466.01202393 C40.65603245 469.02490372 39.31620275 472.03350183 37.97686768 475.0423584 C37.33544454 476.49192259 36.69916198 477.94377454 36.06854248 479.39807129 C30.11496686 493.12587316 23.7696709 501.89071616 9.625 507.875 C0.32603537 509.42482744 -7.99972414 509.97613765 -16 504.41015625 C-22.10540784 498.9220231 -25.81851388 491.9958096 -26.37915033 483.77189803 C-26.39124919 482.34676004 -26.39252308 480.92150389 -26.38506222 479.49633408 C-26.38886789 478.70393646 -26.39267356 477.91153885 -26.39659455 477.09512919 C-26.40691437 474.43556593 -26.40300344 471.77621593 -26.39915466 469.11663818 C-26.40360685 467.19230289 -26.40892083 465.26796943 -26.41502339 463.34363866 C-26.42921605 458.05195182 -26.43086644 452.76032368 -26.43042648 447.46862054 C-26.43207355 441.76294757 -26.44513797 436.05729887 -26.45661926 430.35163879 C-26.47947623 417.87444819 -26.48739052 405.39727458 -26.49244571 392.92006588 C-26.49570169 385.1304162 -26.50222353 377.34077146 -26.5094471 369.55112457 C-26.52901334 347.98662278 -26.5454989 326.42212736 -26.54832363 304.85761642 C-26.54841769 304.16796896 -26.54851175 303.4783215 -26.54860866 302.76777563 C-26.54898714 299.9729641 -26.54935114 297.17815257 -26.54971164 294.38334104 C-26.54998336 292.27981199 -26.55026004 290.17628295 -26.55053711 288.07275391 C-26.55062513 287.37766728 -26.55071315 286.68258065 -26.55080384 285.96643079 C-26.55370919 264.12715754 -26.5758049 242.2879728 -26.61206055 220.44873047 C-26.65279516 195.9108947 -26.67646267 171.37312521 -26.67678314 146.835253 C-26.67736808 133.84358925 -26.68588346 120.85203943 -26.71478081 107.86040497 C-26.73927127 96.79910543 -26.74659323 85.73796139 -26.73153328 74.67664209 C-26.72435512 69.03285511 -26.72526131 63.38937534 -26.74794388 57.74562263 C-26.76851577 52.57754114 -26.76594987 47.41000338 -26.74506903 42.24192789 C-26.74157077 40.37383533 -26.74649833 38.50570368 -26.76077347 36.63766238 C-26.9041673 16.57795546 -26.9041673 16.57795546 -19.10591692 8.3765285 C-13.38182028 2.9639019 -8.00492977 0.06798242 0 0 Z " fill="#000000" transform="translate(339.125,269.5)"/>
</svg>
